<svg width="16" height="18" viewBox="0 0 16 18" fill="none" xmlns="http://www.w3.org/2000/svg">
<path d="M7.99988 9C9.2123 9 10.3751 8.52589 11.2324 7.68198C12.0897 6.83807 12.5713 5.69347 12.5713 4.5C12.5713 3.30653 12.0897 2.16193 11.2324 1.31802C10.3751 0.474106 9.2123 0 7.99988 0C6.78746 0 5.6247 0.474106 4.76739 1.31802C3.91008 2.16193 3.42845 3.30653 3.42845 4.5C3.42845 5.69347 3.91008 6.83807 4.76739 7.68198C5.6247 8.52589 6.78746 9 7.99988 9ZM6.36774 10.6875C2.84988 10.6875 -0.00012207 13.493 -0.00012207 16.9559C-0.00012207 17.5324 0.474878 18 1.06059 18H14.9392C15.5249 18 15.9999 17.5324 15.9999 16.9559C15.9999 13.493 13.1499 10.6875 9.63202 10.6875H6.36774Z" fill="#141414"/>
</svg>
