<svg width="418" height="671" viewBox="0 0 418 671" fill="none" xmlns="http://www.w3.org/2000/svg">
<path d="M7 18V18C7 11.9249 11.9249 7 18 7H40C46.0751 7 51 11.9249 51 18V18" stroke="white" stroke-opacity="0.5" stroke-width="0.5"/>
<path d="M43.6364 179.064H56V180.513L46.2926 187.25V187.371H56V188.868H43.6364V187.419L53.3679 180.657V180.537H43.6364V179.064ZM56 172.668H43.6364V165.206H44.9645V171.171H49.142V165.593H50.4702V171.171H54.6719V165.11H56V172.668ZM56 156.862L43.6364 160.243V158.721L53.706 156.138V156.017L43.6364 153.385V151.694L53.706 149.062V148.942L43.6364 146.358V144.836L56 148.217V149.763L46.1477 152.491V152.588L56 155.317V156.862ZM56 131.39H43.6364V127.212C43.6364 126.246 43.8014 125.453 44.1314 124.834C44.4574 124.214 44.9061 123.755 45.4776 123.457C46.0491 123.159 46.6991 123.01 47.4276 123.01C48.156 123.01 48.802 123.159 49.3654 123.457C49.9289 123.755 50.3716 124.212 50.6935 124.828C51.0115 125.443 51.1705 126.23 51.1705 127.188V130.569H49.8182V127.236C49.8182 126.576 49.7216 126.045 49.5284 125.643C49.3352 125.236 49.0616 124.942 48.7074 124.761C48.3492 124.576 47.9226 124.484 47.4276 124.484C46.9325 124.484 46.4999 124.576 46.1296 124.761C45.7594 124.946 45.4736 125.242 45.2724 125.649C45.0671 126.055 44.9645 126.592 44.9645 127.26V129.893H56V131.39ZM50.446 125.57L56 122.528V124.266L50.446 127.26V125.57ZM56 117.116H43.6364V109.654H44.9645V115.619H49.142V110.04H50.4702V115.619H54.6719V109.557H56V117.116ZM56 103.556H43.6364V102.058H54.6719V96.3112H56V103.556ZM56 90.5931H43.6364V83.1314H44.9645V89.0959H49.142V83.5178H50.4702V89.0959H54.6719L54.6719 83.0348H56L56 90.5931ZM56 76.5258V78.0954L43.6364 73.5556V72.0102L56 67.4704V69.04L45.5923 72.7346V72.8312L56 76.5258ZM51.1705 75.9463L51.1705 69.6196H52.4986L52.4986 75.9463H51.1705ZM46.7273 55.3833C46.1155 55.4557 45.6406 55.7495 45.3026 56.2647C44.9645 56.7798 44.7955 57.4117 44.7955 58.1603C44.7955 58.7076 44.884 59.1865 45.0611 59.597C45.2382 60.0035 45.4817 60.3215 45.7915 60.5509C46.1014 60.7763 46.4536 60.889 46.848 60.889C47.178 60.889 47.4618 60.8105 47.6992 60.6535C47.9326 60.4925 48.1278 60.2873 48.2848 60.0377C48.4377 59.7882 48.5645 59.5266 48.6651 59.2529C48.7617 58.9793 48.8402 58.7277 48.9006 58.4983L49.2386 57.2426C49.3232 56.9207 49.4399 56.5625 49.5888 56.1681C49.7377 55.7696 49.9409 55.3893 50.1985 55.0271C50.4521 54.6608 50.7781 54.359 51.1765 54.1216C51.5749 53.8841 52.0639 53.7654 52.6435 53.7654C53.3116 53.7654 53.9152 53.9404 54.4545 54.2906C54.9938 54.6367 55.4225 55.1438 55.7404 55.8119C56.0584 56.476 56.2173 57.2829 56.2173 58.2327C56.2173 59.1181 56.0745 59.8848 55.7887 60.5328C55.503 61.1767 55.1045 61.6838 54.5934 62.0541C54.0823 62.4203 53.4886 62.6276 52.8125 62.6759V61.1304C53.2794 61.0902 53.6657 60.9332 53.9716 60.6595C54.2734 60.3818 54.4988 60.0317 54.6477 59.6091C54.7926 59.1825 54.8651 58.7237 54.8651 58.2327C54.8651 57.6612 54.7725 57.1481 54.5874 56.6933C54.3982 56.2385 54.1366 55.8783 53.8026 55.6127C53.4645 55.347 53.0701 55.2142 52.6193 55.2142C52.2088 55.2142 51.8748 55.3289 51.6172 55.5583C51.3596 55.7877 51.1503 56.0896 50.9893 56.4639C50.8284 56.8382 50.6875 57.2426 50.5668 57.6773L50.1321 59.1986C49.8544 60.1645 49.458 60.9292 48.9428 61.4926C48.4277 62.0561 47.7536 62.3378 46.9205 62.3378C46.2282 62.3378 45.6245 62.1507 45.1094 61.7764C44.5902 61.3981 44.1877 60.891 43.902 60.2551C43.6122 59.6152 43.4673 58.9008 43.4673 58.112C43.4673 57.3151 43.6102 56.6068 43.896 55.987C44.1777 55.3672 44.564 54.8762 45.055 54.514C45.546 54.1477 46.1035 53.9545 46.7273 53.9344V55.3833ZM56 47.9038H43.6364V40.4422H44.9645V46.4067H49.142V40.8285H50.4702V46.4067H54.6719V40.3456H56V47.9038ZM46.7273 27.5823C46.1155 27.6547 45.6406 27.9485 45.3026 28.4637C44.9645 28.9788 44.7955 29.6107 44.7955 30.3593C44.7955 30.9066 44.884 31.3856 45.0611 31.7961C45.2382 32.2026 45.4817 32.5205 45.7915 32.7499C46.1014 32.9753 46.4536 33.088 46.848 33.088C47.178 33.088 47.4618 33.0095 47.6992 32.8525C47.9326 32.6916 48.1278 32.4863 48.2848 32.2368C48.4377 31.9872 48.5645 31.7256 48.6651 31.452C48.7617 31.1783 48.8402 30.9268 48.9006 30.6974L49.2386 29.4417C49.3232 29.1197 49.4399 28.7615 49.5888 28.3671C49.7377 27.9687 49.9409 27.5883 50.1985 27.2261C50.4521 26.8599 50.7781 26.558 51.1765 26.3206C51.5749 26.0831 52.0639 25.9644 52.6435 25.9644C53.3116 25.9644 53.9152 26.1395 54.4545 26.4896C54.9938 26.8357 55.4225 27.3428 55.7404 28.0109C56.0584 28.675 56.2173 29.4819 56.2173 30.4317C56.2173 31.3171 56.0745 32.0838 55.7887 32.7318C55.503 33.3757 55.1045 33.8828 54.5934 34.2531C54.0823 34.6193 53.4886 34.8266 52.8125 34.8749V33.3295C53.2794 33.2892 53.6657 33.1323 53.9716 32.8586C54.2734 32.5809 54.4988 32.2307 54.6477 31.8081C54.7926 31.3815 54.8651 30.9227 54.8651 30.4317C54.8651 29.8602 54.7725 29.3471 54.5874 28.8923C54.3982 28.4375 54.1366 28.0773 53.8026 27.8117C53.4645 27.5461 53.0701 27.4133 52.6193 27.4133C52.2088 27.4133 51.8748 27.528 51.6172 27.7574C51.3596 27.9868 51.1503 28.2886 50.9893 28.6629C50.8284 29.0372 50.6875 29.4417 50.5668 29.8763L50.1321 31.3976C49.8544 32.3635 49.458 33.1282 48.9428 33.6917C48.4277 34.2551 47.7536 34.5368 46.9205 34.5368C46.2282 34.5368 45.6245 34.3497 45.1094 33.9754C44.5902 33.5971 44.1877 33.09 43.902 32.4541C43.6122 31.8142 43.4673 31.0998 43.4673 30.311C43.4673 29.5141 43.6102 28.8058 43.896 28.186C44.1777 27.5662 44.564 27.0752 45.055 26.713C45.546 26.3467 46.1035 26.1536 46.7273 26.1334V27.5823Z" fill="white" fill-opacity="0.5"/>
<path d="M51 196L51 649C51 660.046 59.9543 669 71 669H418" stroke="white" stroke-opacity="0.5" stroke-width="0.5"/>
</svg>
