<svg width="425" height="412" viewBox="0 0 425 412" fill="none" xmlns="http://www.w3.org/2000/svg">
<g clip-path="url(#clip0_167_5069)">
<path d="M25.8182 163.282V161.81L34.2699 158.35V158.231L25.8182 154.771V153.299H36V154.452H28.2642V154.552L36 157.734V158.847L28.2642 162.029V162.128H36V163.282H25.8182ZM30.9091 139.436C31.983 139.436 32.911 139.63 33.6932 140.018C34.4754 140.405 35.0786 140.937 35.5028 141.613C35.9271 142.29 36.1392 143.062 36.1392 143.93C36.1392 144.799 35.9271 145.571 35.5028 146.247C35.0786 146.923 34.4754 147.455 33.6932 147.843C32.911 148.231 31.983 148.425 30.9091 148.425C29.8352 148.425 28.9072 148.231 28.125 147.843C27.3428 147.455 26.7396 146.923 26.3153 146.247C25.8911 145.571 25.679 144.799 25.679 143.93C25.679 143.062 25.8911 142.29 26.3153 141.613C26.7396 140.937 27.3428 140.405 28.125 140.018C28.9072 139.63 29.8352 139.436 30.9091 139.436ZM30.9091 140.629C30.0275 140.629 29.2834 140.777 28.6768 141.072C28.0703 141.363 27.6113 141.759 27.2997 142.26C26.9882 142.757 26.8324 143.314 26.8324 143.93C26.8324 144.547 26.9882 145.105 27.2997 145.606C27.6113 146.103 28.0703 146.499 28.6768 146.794C29.2834 147.086 30.0275 147.231 30.9091 147.231C31.7907 147.231 32.5348 147.086 33.1413 146.794C33.7479 146.499 34.2069 146.103 34.5185 145.606C34.83 145.105 34.9858 144.547 34.9858 143.93C34.9858 143.314 34.83 142.757 34.5185 142.26C34.2069 141.759 33.7479 141.363 33.1413 141.072C32.5348 140.777 31.7907 140.629 30.9091 140.629ZM28.3636 128.995C27.8598 129.054 27.4688 129.296 27.1903 129.72C26.9119 130.145 26.7727 130.665 26.7727 131.282C26.7727 131.732 26.8456 132.127 26.9915 132.465C27.1373 132.799 27.3378 133.061 27.593 133.25C27.8482 133.436 28.1383 133.529 28.4631 133.529C28.7348 133.529 28.9685 133.464 29.1641 133.335C29.3563 133.202 29.517 133.033 29.6463 132.828C29.7723 132.622 29.8767 132.407 29.9595 132.181C30.0391 131.956 30.1037 131.749 30.1534 131.56L30.4318 130.526C30.5014 130.261 30.5975 129.966 30.7202 129.641C30.8428 129.313 31.0102 129 31.2223 128.701C31.4311 128.4 31.6996 128.151 32.0277 127.956C32.3558 127.76 32.7585 127.662 33.2358 127.662C33.786 127.662 34.2831 127.806 34.7273 128.095C35.1714 128.38 35.5244 128.797 35.7862 129.348C36.0481 129.894 36.179 130.559 36.179 131.341C36.179 132.07 36.0613 132.702 35.826 133.235C35.5907 133.766 35.2625 134.183 34.8416 134.488C34.4207 134.79 33.9318 134.96 33.375 135V133.728C33.7595 133.694 34.0777 133.565 34.3295 133.34C34.5781 133.111 34.7637 132.823 34.8864 132.475C35.0057 132.123 35.0653 131.746 35.0653 131.341C35.0653 130.871 34.9891 130.448 34.8366 130.073C34.6809 129.699 34.4654 129.402 34.1903 129.183C33.9119 128.965 33.5871 128.855 33.2159 128.855C32.8778 128.855 32.6027 128.95 32.3906 129.139C32.1785 129.328 32.0062 129.576 31.8736 129.884C31.741 130.193 31.625 130.526 31.5256 130.884L31.1676 132.137C30.9389 132.932 30.6125 133.562 30.1882 134.026C29.764 134.49 29.2088 134.722 28.5227 134.722C27.9527 134.722 27.4555 134.568 27.0313 134.259C26.6037 133.948 26.2723 133.53 26.0369 133.007C25.7983 132.48 25.679 131.891 25.679 131.242C25.679 130.585 25.7966 130.002 26.032 129.492C26.264 128.981 26.5821 128.577 26.9865 128.279C27.3909 127.977 27.8499 127.818 28.3636 127.801V128.995ZM26.9119 123.392H25.8182V115.755H26.9119V118.957H36V120.19H26.9119V123.392ZM36 104.315H25.8182V100.875C25.8182 100.076 25.9624 99.423 26.2507 98.9159C26.5357 98.4055 26.9219 98.0277 27.4091 97.7824C27.8963 97.5372 28.4399 97.4145 29.0398 97.4145C29.6397 97.4145 30.1849 97.5372 30.6754 97.7824C31.166 98.0244 31.5571 98.3989 31.8487 98.906C32.1371 99.4131 32.2813 100.063 32.2813 100.855V103.321H31.1875V100.895C31.1875 100.348 31.093 99.9086 30.9041 99.5772C30.7152 99.2457 30.46 99.0054 30.1385 98.8563C29.8137 98.7038 29.4474 98.6276 29.0398 98.6276C28.6321 98.6276 28.2675 98.7038 27.946 98.8563C27.6245 99.0054 27.3726 99.2474 27.1903 99.5821C27.0047 99.9169 26.9119 100.361 26.9119 100.915V103.082H36V104.315ZM30.9091 84.0375C31.983 84.0375 32.911 84.2314 33.6932 84.6191C34.4754 85.0069 35.0786 85.5389 35.5028 86.215C35.9271 86.8912 36.1392 87.6634 36.1392 88.5318C36.1392 89.4002 35.9271 90.1724 35.5028 90.8485C35.0786 91.5247 34.4754 92.0566 33.6932 92.4444C32.911 92.8322 31.983 93.0261 30.9091 93.0261C29.8352 93.0261 28.9072 92.8322 28.125 92.4444C27.3428 92.0566 26.7396 91.5247 26.3153 90.8485C25.8911 90.1724 25.679 89.4002 25.679 88.5318C25.679 87.6634 25.8911 86.8912 26.3153 86.215C26.7396 85.5389 27.3428 85.0069 28.125 84.6191C28.9072 84.2314 29.8352 84.0375 30.9091 84.0375ZM30.9091 85.2306C30.0275 85.2306 29.2834 85.3781 28.6768 85.6731C28.0703 85.9648 27.6113 86.3609 27.2997 86.8613C26.9882 87.3585 26.8324 87.9153 26.8324 88.5318C26.8324 89.1483 26.9882 89.7067 27.2997 90.2072C27.6113 90.7044 28.0703 91.1004 28.6768 91.3954C29.2834 91.6871 30.0275 91.8329 30.9091 91.8329C31.7907 91.8329 32.5348 91.6871 33.1413 91.3954C33.7479 91.1004 34.2069 90.7044 34.5185 90.2072C34.83 89.7067 34.9858 89.1483 34.9858 88.5318C34.9858 87.9153 34.83 87.3585 34.5185 86.8613C34.2069 86.3609 33.7479 85.9648 33.1413 85.6731C32.5348 85.3781 31.7907 85.2306 30.9091 85.2306ZM36 79.1643H25.8182V75.724C25.8182 74.9252 25.9624 74.2723 26.2507 73.7652C26.5357 73.2548 26.9219 72.8769 27.4091 72.6316C27.8963 72.3864 28.4399 72.2637 29.0398 72.2637C29.6397 72.2637 30.1849 72.3864 30.6754 72.6316C31.166 72.8736 31.5571 73.2481 31.8487 73.7552C32.1371 74.2623 32.2813 74.9119 32.2813 75.7041V78.17H31.1875V75.7439C31.1875 75.197 31.093 74.7578 30.9041 74.4264C30.7152 74.095 30.46 73.8547 30.1385 73.7055C29.8137 73.553 29.4474 73.4768 29.0398 73.4768C28.6321 73.4768 28.2675 73.553 27.946 73.7055C27.6245 73.8547 27.3726 74.0966 27.1903 74.4314C27.0047 74.7661 26.9119 75.2102 26.9119 75.7637V77.9314H36V79.1643ZM25.8182 60.7958V59.5628H32.5597C33.2557 59.5628 33.8771 59.7269 34.424 60.055C34.9676 60.3798 35.3968 60.8389 35.7116 61.4321C36.0232 62.0254 36.179 62.7214 36.179 63.5202C36.179 64.319 36.0232 65.015 35.7116 65.6083C35.3968 66.2016 34.9676 66.6623 34.424 66.9904C33.8771 67.3152 33.2557 67.4776 32.5597 67.4776H25.8182V66.2446H32.4602C32.9574 66.2446 33.3999 66.1353 33.7876 65.9165C34.1721 65.6978 34.4754 65.3862 34.6974 64.9819C34.9162 64.5742 35.0256 64.087 35.0256 63.5202C35.0256 62.9534 34.9162 62.4662 34.6974 62.0586C34.4754 61.6509 34.1721 61.3393 33.7876 61.1239C33.3999 60.9052 32.9574 60.7958 32.4602 60.7958H25.8182ZM36 54.3006H25.8182V53.0677H34.9063V48.3347H36V54.3006ZM36 42.5655V43.8581L25.8182 40.1194V38.8467L36 35.1081V36.4007L27.429 39.4433V39.5228L36 42.5655ZM32.0227 42.0882V36.878H33.1165V42.0882H32.0227ZM36 30.7221H25.8182V27.2818C25.8182 26.4863 25.9541 25.8334 26.2259 25.323C26.4943 24.8126 26.8639 24.4347 27.3345 24.1895C27.8052 23.9442 28.3404 23.8216 28.9403 23.8216C29.5402 23.8216 30.0722 23.9442 30.5362 24.1895C31.0002 24.4347 31.3648 24.8109 31.63 25.318C31.8918 25.8251 32.0227 26.4731 32.0227 27.2619V30.046H30.9091V27.3017C30.9091 26.7581 30.8295 26.3206 30.6705 25.9892C30.5114 25.6544 30.286 25.4125 29.9943 25.2633C29.6993 25.1109 29.348 25.0346 28.9403 25.0346C28.5327 25.0346 28.1764 25.1109 27.8714 25.2633C27.5665 25.4158 27.3312 25.6594 27.1655 25.9941C26.9964 26.3289 26.9119 26.7714 26.9119 27.3216V29.4892H36V30.7221ZM31.4261 25.9295L36 23.4238V24.8556L31.4261 27.3216L31.4261 25.9295Z" fill="white" fill-opacity="0.5"/>
<path d="M0 275H10C21.0457 275 30 266.046 30 255V170" stroke="white" stroke-opacity="0.5" stroke-width="0.5"/>
<path d="M30 16V16C30 7.16344 37.1634 0 46 0H378C386.837 0 394 7.16344 394 16V16" stroke="white" stroke-opacity="0.5" stroke-width="0.5"/>
<path d="M394 16V391C394 402.046 402.954 411 414 411H425" stroke="white" stroke-opacity="0.5" stroke-width="0.5"/>
</g>
<defs>
<clipPath id="clip0_167_5069">
<rect width="425" height="412" fill="white"/>
</clipPath>
</defs>
</svg>
