<svg width="23" height="22" viewBox="0 0 23 22" fill="none" xmlns="http://www.w3.org/2000/svg">
<path d="M11.505 5.54321C8.38178 5.54321 5.86258 7.92385 5.86258 10.8753C5.86258 13.8267 8.38178 16.2074 11.505 16.2074C14.6282 16.2074 17.1474 13.8267 17.1474 10.8753C17.1474 7.92385 14.6282 5.54321 11.505 5.54321ZM11.505 14.3418C9.48669 14.3418 7.83669 12.7872 7.83669 10.8753C7.83669 8.96335 9.48178 7.40874 11.505 7.40874C13.5282 7.40874 15.1733 8.96335 15.1733 10.8753C15.1733 12.7872 13.5233 14.3418 11.505 14.3418ZM18.6943 5.3251C18.6943 6.01655 18.105 6.56879 17.3782 6.56879C16.6465 6.56879 16.0621 6.01191 16.0621 5.3251C16.0621 4.63829 16.6514 4.08141 17.3782 4.08141C18.105 4.08141 18.6943 4.63829 18.6943 5.3251ZM22.4313 6.58735C22.3478 4.92137 21.9452 3.44565 20.6537 2.2298C19.367 1.01396 17.8054 0.633428 16.0425 0.549896C14.2255 0.452443 8.77954 0.452443 6.96258 0.549896C5.20455 0.628787 3.64294 1.00932 2.35142 2.22516C1.0599 3.44101 0.662135 4.91672 0.573743 6.58271C0.470618 8.29974 0.470618 13.4462 0.573743 15.1632C0.657225 16.8292 1.0599 18.3049 2.35142 19.5208C3.64294 20.7366 5.19964 21.1171 6.96258 21.2007C8.77954 21.2981 14.2255 21.2981 16.0425 21.2007C17.8054 21.1218 19.367 20.7413 20.6537 19.5208C21.9403 18.3049 22.3429 16.8292 22.4313 15.1632C22.5345 13.4462 22.5345 8.30438 22.4313 6.58735ZM20.084 17.0056C19.701 17.9151 18.9595 18.6159 17.992 18.9825C16.5434 19.5254 13.1059 19.4001 11.505 19.4001C9.9041 19.4001 6.46169 19.5208 5.01794 18.9825C4.05544 18.6205 3.31392 17.9198 2.92597 17.0056C2.35142 15.6366 2.48401 12.3881 2.48401 10.8753C2.48401 9.36244 2.35633 6.10936 2.92597 4.74502C3.30901 3.83546 4.05053 3.13472 5.01794 2.76812C6.4666 2.22516 9.9041 2.35046 11.505 2.35046C13.1059 2.35046 16.5483 2.2298 17.992 2.76812C18.9545 3.13008 19.6961 3.83082 20.084 4.74502C20.6586 6.11401 20.526 9.36244 20.526 10.8753C20.526 12.3881 20.6586 15.6412 20.084 17.0056Z" fill="white"/>
</svg>
