<svg width="23" height="23" viewBox="0 0 23 23" fill="none" xmlns="http://www.w3.org/2000/svg">
<path d="M20.9286 0.540039H2.06652C1.20223 0.540039 0.5 1.23785 0.5 2.09448V20.5456C0.5 21.4022 1.20223 22.1 2.06652 22.1H20.9286C21.7929 22.1 22.5 21.4022 22.5 20.5456V2.09448C22.5 1.23785 21.7929 0.540039 20.9286 0.540039ZM7.14911 19.02H3.88839V8.73091H7.15402V19.02H7.14911ZM5.51875 7.32566C4.47277 7.32566 3.62812 6.4931 3.62812 5.47285C3.62812 4.4526 4.47277 3.62004 5.51875 3.62004C6.55982 3.62004 7.40937 4.4526 7.40937 5.47285C7.40937 6.49791 6.56473 7.32566 5.51875 7.32566ZM19.3719 19.02H16.1112V14.015C16.1112 12.8215 16.0866 11.2864 14.417 11.2864C12.7179 11.2864 12.4576 12.5857 12.4576 13.9284V19.02H9.19688V8.73091H12.325V10.1362H12.3692C12.8062 9.32766 13.8719 8.47585 15.458 8.47585C18.758 8.47585 19.3719 10.6078 19.3719 13.3798V19.02Z" fill="white"/>
</svg>
