<svg width="28" height="28" viewBox="0 0 28 28" fill="none" xmlns="http://www.w3.org/2000/svg">
<path d="M22.7512 11.373C22.7512 13.8832 21.9364 16.202 20.5637 18.0832L27.4872 25.0121C28.1708 25.6957 28.1708 26.8059 27.4872 27.4895C26.8036 28.173 25.6934 28.173 25.0098 27.4895L18.0864 20.5605C16.2051 21.9387 13.8864 22.748 11.3762 22.748C5.09263 22.748 0.0012207 17.6566 0.0012207 11.373C0.0012207 5.08945 5.09263 -0.00195312 11.3762 -0.00195312C17.6598 -0.00195312 22.7512 5.08945 22.7512 11.373ZM11.3762 19.248C12.4104 19.248 13.4344 19.0444 14.3899 18.6486C15.3453 18.2528 16.2134 17.6728 16.9447 16.9415C17.6759 16.2103 18.256 15.3421 18.6518 14.3867C19.0475 13.4312 19.2512 12.4072 19.2512 11.373C19.2512 10.3389 19.0475 9.31485 18.6518 8.35942C18.256 7.40398 17.6759 6.53584 16.9447 5.80458C16.2134 5.07332 15.3453 4.49325 14.3899 4.0975C13.4344 3.70174 12.4104 3.49805 11.3762 3.49805C10.3421 3.49805 9.31803 3.70174 8.36259 4.0975C7.40715 4.49325 6.53902 5.07332 5.80775 5.80458C5.07649 6.53584 4.49642 7.40398 4.10067 8.35942C3.70491 9.31485 3.50122 10.3389 3.50122 11.373C3.50122 12.4072 3.70491 13.4312 4.10067 14.3867C4.49642 15.3421 5.07649 16.2103 5.80775 16.9415C6.53902 17.6728 7.40715 18.2528 8.36259 18.6486C9.31803 19.0444 10.3421 19.248 11.3762 19.248Z" fill="white"/>
</svg>
