<svg width="32" height="28" viewBox="0 0 32 28" fill="none" xmlns="http://www.w3.org/2000/svg">
<g clip-path="url(#clip0_5_740)">
<path d="M0.0012207 1.31055C0.0012207 0.583203 0.595665 -0.00195312 1.33455 -0.00195312H3.86233C5.08455 -0.00195312 6.16789 0.698047 6.67344 1.74805H29.5068C30.9679 1.74805 32.0346 3.11523 31.6512 4.5043L29.3734 12.8332C28.9012 14.5504 27.3179 15.748 25.5123 15.748H9.48455L9.78455 17.3066C9.90678 17.9246 10.4568 18.373 11.0957 18.373H27.1123C27.8512 18.373 28.4457 18.9582 28.4457 19.6855C28.4457 20.4129 27.8512 20.998 27.1123 20.998H11.0957C9.17344 20.998 7.52344 19.6527 7.16789 17.7988L4.30122 2.97852C4.26233 2.7707 4.079 2.62305 3.86233 2.62305H1.33455C0.595665 2.62305 0.0012207 2.03789 0.0012207 1.31055ZM7.11233 25.373C7.11233 25.0283 7.18131 24.687 7.31532 24.3685C7.44933 24.05 7.64576 23.7606 7.89338 23.5169C8.141 23.2731 8.43497 23.0798 8.75851 22.9479C9.08204 22.8159 9.42881 22.748 9.779 22.748C10.1292 22.748 10.476 22.8159 10.7995 22.9479C11.123 23.0798 11.417 23.2731 11.6646 23.5169C11.9122 23.7606 12.1087 24.05 12.2427 24.3685C12.3767 24.687 12.4457 25.0283 12.4457 25.373C12.4457 25.7178 12.3767 26.0591 12.2427 26.3776C12.1087 26.6961 11.9122 26.9854 11.6646 27.2292C11.417 27.473 11.123 27.6663 10.7995 27.7982C10.476 27.9301 10.1292 27.998 9.779 27.998C9.42881 27.998 9.08204 27.9301 8.75851 27.7982C8.43497 27.6663 8.141 27.473 7.89338 27.2292C7.64576 26.9854 7.44933 26.6961 7.31532 26.3776C7.18131 26.0591 7.11233 25.7178 7.11233 25.373ZM25.779 22.748C26.4862 22.748 27.1645 23.0246 27.6646 23.5169C28.1647 24.0092 28.4457 24.6769 28.4457 25.373C28.4457 26.0692 28.1647 26.7369 27.6646 27.2292C27.1645 27.7215 26.4862 27.998 25.779 27.998C25.0718 27.998 24.3935 27.7215 23.8934 27.2292C23.3933 26.7369 23.1123 26.0692 23.1123 25.373C23.1123 24.6769 23.3933 24.0092 23.8934 23.5169C24.3935 23.0246 25.0718 22.748 25.779 22.748Z" fill="white"/>
</g>
<defs>
<clipPath id="clip0_5_740">
<rect width="32" height="28" fill="white" transform="translate(0.0012207 -0.00195312)"/>
</clipPath>
</defs>
</svg>
