<svg width="28" height="28" viewBox="0 0 28 28" fill="none" xmlns="http://www.w3.org/2000/svg">
<g clip-path="url(#clip0_5_737)">
<path d="M9.01797 1.34459C8.59687 0.327405 7.48672 -0.214001 6.42578 0.0758424L1.61328 1.38834C0.661719 1.65084 0 2.5149 0 3.49928C0 17.029 10.9703 27.9993 24.5 27.9993C25.4844 27.9993 26.3484 27.3376 26.6109 26.386L27.9234 21.5735C28.2133 20.5126 27.6719 19.4024 26.6547 18.9813L21.4047 16.7938C20.5133 16.4219 19.4797 16.679 18.8727 17.4282L16.6633 20.1243C12.8133 18.3032 9.69609 15.186 7.875 11.336L10.5711 9.13209C11.3203 8.51959 11.5773 7.49147 11.2055 6.60006L9.01797 1.35006V1.34459Z" fill="white"/>
</g>
<defs>
<clipPath id="clip0_5_737">
<rect width="28.0012" height="28.0012" fill="white" transform="translate(0 -0.00195312)"/>
</clipPath>
</defs>
</svg>
