<svg width="18" height="19" viewBox="0 0 18 19" fill="none" xmlns="http://www.w3.org/2000/svg">
<g clip-path="url(#clip0_1_8204)">
<path d="M17.5112 0.696765C17.8663 0.942859 18.0526 1.36825 17.9858 1.79364L15.7358 16.4186C15.6831 16.7597 15.4757 17.0585 15.1733 17.2272C14.871 17.396 14.5089 17.4171 14.1889 17.2835L9.98425 15.5362L7.57605 18.1413C7.26316 18.4823 6.77097 18.5948 6.33855 18.4261C5.90613 18.2573 5.62488 17.839 5.62488 17.3749V14.4358C5.62488 14.2952 5.67761 14.1616 5.77253 14.0597L11.6647 7.62958C11.8686 7.40809 11.8616 7.06708 11.6507 6.85614C11.4397 6.6452 11.0987 6.63114 10.8772 6.83153L3.72644 13.1843L0.622144 11.6304C0.249487 11.444 0.0104248 11.0714 -0.00012211 10.6565C-0.010669 10.2417 0.2073 9.85497 0.565894 9.64755L16.3159 0.647547C16.6921 0.433093 17.1561 0.454187 17.5112 0.696765Z" fill="#B3B3B3"/>
</g>
<defs>
<clipPath id="clip0_1_8204">
<rect width="18" height="19" fill="white"/>
</clipPath>
</defs>
</svg>
