<svg width="24" height="20" viewBox="0 0 24 20" fill="none" xmlns="http://www.w3.org/2000/svg">
<path d="M21.1358 5.06785C21.1504 5.27972 21.1504 5.49164 21.1504 5.70351C21.1504 12.1659 16.4074 19.612 7.73858 19.612C5.06788 19.612 2.58694 18.8099 0.5 17.4176C0.879455 17.4629 1.24427 17.4781 1.63832 17.4781C3.84196 17.4781 5.87054 16.7062 7.49047 15.3895C5.41814 15.3441 3.68146 13.9366 3.0831 11.9994C3.375 12.0448 3.66686 12.0751 3.97336 12.0751C4.39657 12.0751 4.81982 12.0145 5.21383 11.9086C3.05394 11.4546 1.43397 9.4871 1.43397 7.111V7.05049C2.06148 7.41371 2.79124 7.64073 3.56466 7.67096C2.29499 6.79315 1.46317 5.29486 1.46317 3.59979C1.46317 2.69175 1.69663 1.85935 2.10528 1.1329C4.42572 4.09924 7.91368 6.03641 11.8248 6.24833C11.7519 5.8851 11.7081 5.50678 11.7081 5.12841C11.7081 2.43445 13.8096 0.23999 16.4219 0.23999C17.7791 0.23999 19.005 0.83023 19.866 1.7837C20.9314 1.57183 21.9529 1.16318 22.8578 0.603219C22.5075 1.73832 21.7632 2.69179 20.7855 3.29713C21.7341 3.19124 22.6535 2.91876 23.4999 2.54044C22.8579 3.509 22.0552 4.37162 21.1358 5.06785Z" fill="white"/>
</svg>
