<svg width="27" height="19" viewBox="0 0 27 19" fill="none" xmlns="http://www.w3.org/2000/svg">
<path d="M26.2193 2.91016C25.914 1.78368 25.0144 0.896506 23.8722 0.59543C21.8018 0.0483398 13.5 0.0483398 13.5 0.0483398C13.5 0.0483398 5.19818 0.0483398 3.12778 0.59543C1.98556 0.896554 1.08597 1.78368 0.780641 2.91016C0.225891 4.95196 0.225891 9.21198 0.225891 9.21198C0.225891 9.21198 0.225891 13.472 0.780641 15.5138C1.08597 16.6403 1.98556 17.4905 3.12778 17.7916C5.19818 18.3387 13.5 18.3387 13.5 18.3387C13.5 18.3387 21.8018 18.3387 23.8722 17.7916C25.0144 17.4905 25.914 16.6403 26.2193 15.5138C26.7741 13.472 26.7741 9.21198 26.7741 9.21198C26.7741 9.21198 26.7741 4.95196 26.2193 2.91016ZM10.7848 13.0798V5.3442L17.7235 9.21208L10.7848 13.0798Z" fill="white"/>
</svg>
